<?xml version="1.0" encoding="UTF-8"?>
<!DOCTYPE svg PUBLIC "-//W3C//DTD SVG 1.1//EN" "http://www.w3.org/Graphics/SVG/1.1/DTD/svg11.dtd">
<!-- Creator: CorelDRAW -->
<svg xmlns="http://www.w3.org/2000/svg" xml:space="preserve" width="2048px" height="2048px" style="shape-rendering:geometricPrecision; text-rendering:geometricPrecision; image-rendering:optimizeQuality; fill-rule:evenodd; clip-rule:evenodd"
viewBox="0 0 2048 2048"
 xmlns:xlink="http://www.w3.org/1999/xlink">
 <defs>
  <style type="text/css">
   <![CDATA[
    .fil4 {fill:none}
    .fil0 {fill:#959595}
    .fil3 {fill:#989898}
    .fil1 {fill:#FBFBFC}
    .fil2 {fill:#AFAFAF;fill-rule:nonzero}
   ]]>
  </style>
 </defs>
 <g id="Layer_x0020_1">
  <metadata id="CorelCorpID_0Corel-Layer"/>
  <g id="_381613840">
   <path id="_381614032" class="fil0" d="M1186.02 320.696l340.392 594.466 339.244 592.464 1.00039 1.99961c16.6453,34.4516 23.1201,68.7922 21.5906,101.084 -1.72441,36.4229 -13.5803,69.9319 -32.511,97.9217 -18.9414,28.0063 -45.0437,50.6138 -75.2386,65.204 -26.2701,12.6921 -55.6524,19.2957 -86.152,18.1051l0 0.0614174 -670.348 0 -673.714 0 -1.12559 -0.125197c-30.5693,-1.09016 -59.0304,-8.67638 -84.0709,-21.365 -32.3729,-16.4032 -59.113,-41.3221 -77.4508,-71.7993 -18.2929,-30.4016 -28.1362,-66.2823 -26.7662,-104.689 1.05473,-29.5607 8.7319,-60.4241 24.3012,-91.1528l0.750001 -1.5 335.661 -586.208 342.472 -598.099 3.49961 -4.87441c14.661,-17.1154 30.5658,-31.35 47.2441,-42.7926 38.0516,-26.1059 80.1201,-37.6949 120.9,-35.9008 41.1449,1.81181 80.6505,17.2311 113.185,45.1016 13.2307,11.3327 25.2768,24.6874 35.7638,39.9744l1.3748 2.1248z"/>
   <path id="_381613816" class="fil1" d="M1104.01 370.659c-4.67835,-7.21064 -11.0787,-13.5874 -17.5772,-19.1551 -15.5906,-13.3547 -34.4339,-21.1996 -54.9544,-22.1032 -22.4835,-0.988583 -43.9583,6.52323 -62.3693,19.1551 -7.01693,4.81418 -18.5445,12.6177 -23.5713,19.6205l-0.623623 0.868111 -674.312 1177.63c-7.78819,15.8055 -13.161,33.0721 -13.7929,50.7662 -0.649607,18.2114 3.67205,36.1288 13.0854,51.7725 9.21851,15.3213 22.6406,27.5811 38.5855,35.6599 12.887,6.53032 32.1579,9.36851 47.2158,11.1248l1342.4 0.011811c14.0965,0.550394 27.9567,-2.4874 40.6441,-8.61733 15.078,-7.28504 28.1079,-18.6851 37.4835,-32.5477 9.8067,-14.5004 15.3106,-31.1988 16.1386,-48.6815 0.884646,-18.6815 -3.0626,-36.463 -11.3551,-53.191l-676.993 -1182.32z"/>
  </g>
  <g id="_381613048">
   <path id="_381613696" class="fil2" d="M1143.95 990.754c38.3551,9.91654 74.569,24.4902 107.856,42.9969l-88.982 216.633 154.612 -171.973c16.141,13.2933 31.1918,27.6638 45.0036,42.9922 62.3434,69.1843 99.7335,157.702 99.7335,254.293 0,5.46969 -0.219685,12.2717 -0.651969,20.3469 -0.370866,6.95197 -0.924804,13.8815 -1.64528,20.7732l-0.0295276 -0.00236221 -0.00236221 0.0259843 -3.47953 36.0496 -35.9882 0 -791.523 0 -36.0614 0 -3.40512 -36.2055 -0.0519685 -0.551575 -0.0437008 0.00472441c-0.701575,-6.81969 -1.2378,-13.6453 -1.59803,-20.4579 -0.420473,-7.97127 -0.636615,-14.6575 -0.636615,-19.9831 0,-96.5906 37.3902,-185.108 99.7335,-254.293 13.813,-15.3284 28.8614,-29.7012 45.0036,-42.9922l151.054 169.599 -85.4209 -214.26c33.2859,-18.5079 69.4985,-33.0792 107.854,-42.9957l0 -54.9756 0 -39.7784 39.7796 0 159.112 0 39.7784 0 0 39.7784 0 54.9756z"/>
   <path id="_381613576" class="fil2" d="M1143.95 990.754c38.3551,9.91654 74.569,24.4902 107.856,42.9969l-88.982 216.633 154.612 -171.973c16.141,13.2933 31.1918,27.6638 45.0036,42.9922 62.3434,69.1843 99.7335,157.702 99.7335,254.293 0,5.46969 -0.219685,12.2717 -0.651969,20.3469 -0.370866,6.95197 -0.924804,13.8815 -1.64528,20.7732l-0.0295276 -0.00236221 -0.00236221 0.0259843 -3.47953 36.0496 -35.9882 0 -791.523 0 -36.0614 0 -3.40512 -36.2055 -0.0519685 -0.551575 -0.0437008 0.00472441c-0.701575,-6.81969 -1.2378,-13.6453 -1.59803,-20.4579 -0.420473,-7.97127 -0.636615,-14.6575 -0.636615,-19.9831 0,-96.5906 37.3902,-185.108 99.7335,-254.293 13.813,-15.3284 28.8614,-29.7012 45.0036,-42.9922l151.054 169.599 -85.4209 -214.26c33.2859,-18.5079 69.4985,-33.0792 107.854,-42.9957l0 -54.9756 0 -39.7784 39.7796 0 159.112 0 39.7784 0 0 39.7784 0 54.9756z"/>
   <path id="_381613480" class="fil3" d="M882.843 1248.01l-79.1788 -198.6c-20.9433,12.7748 -40.6961,27.3095 -59.0504,43.3996l138.229 155.201z"/>
   <path id="_381613384" class="fil3" d="M1245.41 1049.32l-82.5875 201.067 141.722 -157.635c-18.3791,-16.1067 -38.1591,-30.652 -59.1343,-43.4327z"/>
   <path id="_381613288" class="fil3" d="M905.275 990.457c37.9524,-10.6571 77.9776,-16.3571 119.335,-16.3571 41.3575,0 81.3827,5.7 119.335,16.3571l0 -54.678 0 -39.7784 -39.7784 0 -159.112 0 -39.7796 0 0 39.7784 0 54.678z"/>
   <path id="_381613120" class="fil3" d="M567.787 1409.93c307.084,32.3599 584.537,31.1233 913.652,0 11.2287,-1.06181 20.5075,9.22914 20.5075,20.5087l0 43.4174c0,11.2784 -9.25867,19.6854 -20.5075,20.5075 -327.878,23.9492 -604.461,23.5996 -913.652,0 -11.2465,-0.858662 -20.5075,-9.22796 -20.5075,-20.5075l0 -43.4174c0,-11.2795 9.28938,-21.6898 20.5075,-20.5087z"/>
  </g>
  <rect class="fil4" width="2048" height="2048"/>
 </g>
</svg>
